<?xml version="1.0" encoding="utf-8"?>
<!-- Generator: Adobe Illustrator 18.1.0, SVG Export Plug-In . SVG Version: 6.00 Build 0)  -->
<svg version="1.1" xmlns="http://www.w3.org/2000/svg" xmlns:xlink="http://www.w3.org/1999/xlink" x="0px" y="0px"
	 viewBox="0 0 165 207" enable-background="new 0 0 165 207" xml:space="preserve">
<g id="Layer_1">
	<g>
		<g>
			<path fill="#3A3A39" d="M94.6,202.3c-7.2,0-14.4,0-21.6,0c-21.2-1.9-37.5-12.5-50.6-28.8c-10-12.4-15-26.5-14.7-42.5
				c0-4.2,0-8.4,0-12.5C7.5,91.9,21,72.8,41.9,59c38.6-25.5,90.4-11.9,112.3,28.9c5.2,9.8,8.4,20.1,8,31.4
				c-0.3,10.1,0.5,20.3-2.8,30.2c-8.4,25.3-25.3,42-50.2,50.8C104.7,201.9,99.5,201.3,94.6,202.3z"/>
			<path fill="#FFFFFF" d="M94.6,202.3c3-1.6,6.5-1.6,9.7-2.4c37.5-10.1,61.4-45.4,56.8-84.5c-4.2-36.6-36-66-72.5-67.3
				C48.9,46.7,16.1,72.8,9,111.1c-0.4,2.1-0.6,4.3-0.9,6.5c-0.2,0.7-0.4,0.7-0.8,0.1c0-35.8,0-71.5-0.1-107.3c0-2.8,0.5-3.7,3.5-3.7
				C32.1,7,53.5,6.9,74.9,6.9c0.3,0.4,0.3,0.9,0,1.3c-2.2,1.9-4.9,1.9-7.5,2.3C50.6,13,35.6,19.6,22.6,30.6
				c-1.3,1.1-3.6,1.9-2.6,4.3c0.8,2,6.3,4.2,8.1,3.5c1.5-0.6,2.6-1.7,3.9-2.6c34.6-24,76.7-23.3,110,4.3c3.4,2.8,8,1.9,10.1-2
				c1.2-2.2-0.6-3.2-1.8-4.3c-9-8.2-19.3-14.4-30.8-18.5c-8.7-3.1-17.8-4.7-27.1-5.6c-1.8-0.2-3.8,0-5.3-1.5c-0.3-0.4-0.3-0.9,0-1.3
				c24.4,0,48.8,0,73.3-0.1c2.3,0,2.9,0.5,2.9,2.9c-0.1,63.3-0.1,126.5,0,189.8c0,2.3-0.5,2.9-2.9,2.9
				C138.5,202.2,116.6,202.3,94.6,202.3z"/>
			<path fill="#FFFFFF" d="M8.1,131.9c3.4,34.7,26.8,61.1,60.8,68.9c1.4,0.3,3.2-0.2,4.1,1.5c-20.9,0-41.8-0.1-62.7,0.1
				c-2.6,0-3.1-0.5-3.1-3.1c0.1-22.5,0.1-44.9,0.1-67.4C7.6,131.2,7.9,131.2,8.1,131.9z"/>
			<path fill="#A9A5A5" d="M8.1,131.9l-0.4,0l-0.4-0.1c0-4.7,0-9.4,0-14.1c0.2-0.2,0.5-0.2,0.8-0.1C8.1,122.4,8.1,127.2,8.1,131.9z"
				/>
			<path fill="#D1CECE" d="M74.9,7.7c0-0.3,0-0.6,0-0.9c4.1,0,8.1,0,12.2,0c0,0.3,0,0.6,0,0.9C83.2,10.6,78.8,10.6,74.9,7.7z"/>
			<path fill="#3A7BBF" d="M72.2,60.4c7.5-1.7,15-1.7,22.5,0c1.5,1,2.6,2.4,2.4,4.2c-0.4,3.5,2,4.5,4.4,6.2
				c6.4,4.5,13.9,6.7,20.4,10.8c1.4,0.9,2.8,1.4,4.2,0.1c1.5-1.3,3.4-1.4,5.2-2c6.4,5.9,10.7,13.2,13.8,21.2c-1.3,3.7-3.8,4.5-7,2.7
				c-3.1-1.8-5.3-0.9-7.2,1.6c-0.6,0.7-1.3,1.7-2.1,1.8c-5.1,0.4-5.8,6.2-9.8,7.8c-0.7,0.3-1.1,1.3-0.7,2c0.6,1.1,1.7,0.6,2.5,0.2
				c2.4-1.1,4.5-2.9,6.9-4c2.2-1,4.3-1.4,6.7-0.2c4.7,2.2,9.5,4,14.8,4.1c0.9,4.1,1.3,8.2,0.5,12.4c-1.6,0.1-3.1,0.5-4.6,0.8
				c-4.1,0.9-7.2-0.3-10-3.5c-4.4-5.1-13.7-5-18.3-0.1c-2.2,2.4-4.4,4.9-6.5,7.4c-1.4,1.1-3.2,1.1-4.8,1.5c-4,1-5.8,4-4.7,7.5
				c1.4,4.4,4.8,6,8.9,4.1c0.8-0.4,1.6-0.9,2.6-0.9c2.5,0.1,3.8,2.2,5.7,3.3c2.7,3.1,5.5,4.8,9,1.1c0.7-0.7,1.7-0.5,2.5,0.2
				c2.1,3.5,1.6,7.1,0.7,10.8c-0.9-0.6-1.7-1.3-2.7-1.9c-1.8-1.1-4-2.2-5.7-1c-1.7,1.2,0.3,3,0.6,4.6c0.8,4.8,0.3,9.7,0.4,14.5
				c0,1.4-0.8,2.7-2.1,2.6c-1.8-0.1-1.1-1.9-1.1-3c-0.2-4.2,0.1-8.5-0.4-12.6c-0.7-6.5-6.7-11.4-13-11c-2.2,0.1-2.9,0.6-2.2,3.1
				c2.7,9.8,0.9,19.9,1.3,29.8c0.1,1.2-0.5,2.3-1.9,2.2c-1.7-0.1-1.2-1.6-1.2-2.5c-0.1-6.6,0-13.1,0-19.7c0-17.5-12-26-28.4-20.1
				c-2.9,0.1-4.9-1.7-6.9-3.4c-0.5-0.8-0.8-1.7-1.1-2.6c-1.9-5.8-6.5-7-11.1-2.9c-0.9,0.8-1.7,1.8-3,2.1c-2.1,0.1-3.5-1-4.9-2.4
				c-3-3-5.9-6.1-9.4-8.5c-2-1.4-3.3-3.5-2.6-6.1c0.7-2.6,3-2.9,5.2-3.2c3.2-0.4,6.6-1.6,9.4,2c2.3-6.5,6.7-10.9,12.3-14.3
				c1.2-0.7,2.7-1.3,3.2-2.7c1-2.5,2.7-3.3,5.2-2.9c0.9,0.2,2,0.1,2.4-0.9c0.4-1.1-0.7-1.6-1.1-2.4c-2.9-4.9-8-6.5-12.8-8.6
				c-1.2,1.1-0.7,2.6-1,3.9c-0.8,3.9-3.1,5.3-6.8,3.8c-3.5-1.4-6.6-3.7-8.8-6.8c-2.2-3-1.7-6.6,1.1-9.9c1.3-1.6,3.1-2.6,4.8-3.8
				c-1.3-1-3.2-0.2-4.3-1.5c-1.1-3.3,1.8-4.2,3.7-4.9c4.9-1.9,9.4-5.6,15.3-4.4c1.4,0.3,2.7-0.7,3.6-1.8
				C67.8,62.7,70,61.6,72.2,60.4z"/>
			<path fill="#FFFFFF" d="M44.1,75.4c0.6,0,1.3,0.2,1.9,0c2.2-0.7,5.1-1.4,5.8,0.8c0.6,2-2.6,2.4-4.3,3.2c-6.3,3-7,8.8-1.7,13.1
				c1,0.8,1.9,1.6,2.9,2.3c1.9,1.4,4,3.1,6.4,1.9c2.4-1.2,1-3.6,0.9-5.5c-0.1-1.8,0-3.7,1.7-4.5c1.9-0.9,2.5,1.3,3.5,2.3
				c0.8,0.7,1.8,2.1,2.5,1.9c7.5-1.6,6.7,7.7,11.9,9.1c0.6,0.2,0.8,1.5,0,2c-1.5,1.1-2.9,2.4-5,2c-1.2-0.2-2.1-1.4-3.9-0.9
				c1.2,2.4,0.8,3-2,4.5c-6.9,3.9-14,8.7-14.1,18.6c-3.5-6.3-6-7.2-12.5-5c-3.2,1.1-2.6,4.2-1.1,5.1c5.6,3.5,9.1,9.3,14.7,12.7
				c1,1,1,2.1,0.6,3.4c-1.8,2.1-3.5,0.6-4.9-0.4c-4.6-3.5-9.3-6.6-14.8-8.8c-4.5-1.8-6.1-6.8-8-11.8c-0.1,4.2-1.9,3.7-3.9,2.1
				c-2.2-1.9-2.4-4.6-2.7-7.2c2.8-17.5,10.5-32.2,24.9-43C43.7,73.9,43.2,75.1,44.1,75.4z"/>
			<path fill="#FFFFFF" d="M117.1,150.4c-2.2-0.3-2.9-2.6-4.7-3.5c0.3-4.8-0.6-9.3-3.2-13.4c3-7.8,12.4-13.5,20.4-12.5
				c1.9,0.2,3.7,1,4.8,2.6c3,4.8,6.8,6.9,12.4,4.4c1.3-0.6,2.5-0.4,2.7,1.4c-1.3,15.4-6.2,29.2-17.3,41.3c0.1-3.7-0.7-6.4-2.2-9
				c-2.4-3.2,0.1-7.2-1.9-10.4C123.4,143.5,123.4,143.5,117.1,150.4z"/>
			<path fill="#3A7BBF" d="M18,116.5c1.5,2.6,3.1,5.3,5.3,9c0.3-3.9-2-5.9-1.4-9c2.7,3.1,4.6,6.1,6.2,9.4c1.7,3.5,3.6,6.5,8.3,7.2
				c4.2,0.6,7.1,4.2,10.4,6.8c1.6,1.2,3.2,2.4,4.9,3.5c1.1-0.2,0.9,0.5,0.9,1.2c-0.8,1.9-1.7,3.8-4.2,3.6c-1.1-0.3-1.8-1.1-2.7-1.8
				c-1.4-1.1-2.8-1.3-4.3-0.1c-1.3,1-1.4,2.4-1.2,3.8c0.3,1.8,1.5,2.7,3.2,2.9c1.7,0.2,3.4-0.7,5,0.5c1.7,1.6,1.2,3.6,0.7,5.5
				c-4,6.6-1.7,14-2.6,21c-2.2-0.2-3-1.4-2.9-3.2c0.2-5.3-0.8-10.7,1.1-15.8c0.9-2.5-0.3-2.7-2.2-2.6c-4.6,0.3-7.6,3.9-8.5,11.4
				C20.5,153.8,15.9,136.2,18,116.5z"/>
			<path fill="#FDFEFE" d="M131.3,79.7c-0.2,1,0.2,2.3-1.5,2.3c-0.9,0-2.5,0-2.6,0.3c-2.1,6.2-4.5,0.9-6.6,0.2
				c-8-2.9-14.9-8-22.5-11.5c-2.4-1.1-3.7-2.1-2.5-4.8c0.9-2.1-0.1-4-0.8-5.9C109.1,62.5,121.3,69,131.3,79.7z"/>
			<path fill="#FDFEFE" d="M149.1,117c-0.4,0.2-0.9,0.3-1.2,0.7c-2.7,3-4.7,2.7-6.2-1.1c-0.2-0.5-0.7-1-1.4-1.9
				c-1.9,3.8-3.6,4.6-5.6,0.3c-1-2.1-3.2-2.3-5.2-1c-2.4,1.5-4.6,3.2-7.1,4.5c-2.2,1.2-4.9,2.8-6.4-0.4c-1.2-2.7,0.5-4.8,3.3-5.6
				c2.4-0.6,3.9-1.4,2.5-4.1c-0.8-1.6,0.2-2.1,1.4-1.9c4.2,0.6,6.6-1.9,8.8-4.8c1.6-2.1,3.3-2.2,5.1-0.5c2.8,2.5,5.4,2.2,8-0.3
				C147,106.1,148.7,111.4,149.1,117z"/>
			<path fill="#FBFBFB" d="M49.1,159c-0.5-1.9-1-3.8-1.6-5.8c-1-2.1-0.8-4,1.2-5.5c1.7-0.9,2.1-2.8,3.1-4.1c1.9-0.1,2.5,1.6,3.6,2.6
				c3.4,3.3,5.9,3.2,8.9-0.5c1-1.2,1.5-2.8,3.3-3.1c2.6,0.5,4.2,2.3,6,4c-6.7,5.7-10.7,12.7-9.9,21.9c0.2,2.3,0.7,5-2.8,6.6
				c-0.2-6.3-1.1-12.3,1.2-18c1.2-3.1-0.2-3.6-2.6-3.5C55.3,153.9,51.9,155.8,49.1,159z"/>
			<path fill="#F5F5F8" d="M44.1,75.4c-0.8-0.4-1.1-1.1-1.2-2c8.4-7.3,18.3-11.3,29.2-13.1c-1.4,2.9-4.1,4.5-6.1,6.9
				c-1,1.3-2.8,1.6-4.7,1.1c-3.5-0.8-7.1-1.3-9,3.1c-0.6,1.3-1.6,0.2-2.4,0.2C47.1,71.4,44.5,71.7,44.1,75.4z"/>
			<path fill="#FEFEFE" d="M60.6,183.8c0.7-1.8-0.7-4.5,1.3-4.7c3-0.3,1.9,2.6,1.9,4.2c0,1.6,1.1,4.6-1.5,4.6
				C59.3,187.9,62,184.8,60.6,183.8z"/>
			<path fill="#3A3A3A" d="M74.9,7.7c4.1,0,8.2,0,12.3,0c24.5,0.8,46.4,8.2,64.6,25.1c0.8,0.7,1.5,1.6,2.4,2.3
				c1.8,1.5,2.1,2.5-0.1,4.2c-7.8,6.1-7.7,6.1-15.3,0.2C103.6,12.3,61,15.1,29.5,40.1c-1.8,1.4-2.9,1.5-4.8,0.4
				c-9.9-6-10-6-0.8-13.3C38.9,15.4,56.1,9.4,74.9,7.7z"/>
			<path fill="#3A3A3A" d="M30.8,49.8c14.7-14.1,31.7-21.4,51.8-21.6c21.3-0.2,40.4,5.5,56.2,20.4c3.1,2.9,2.5,4-0.5,6.5
				c-3.5,2.9-5.4,2.9-9.1-0.2C102.1,32.2,68,33.5,42.2,54c-1.9,1.5-3,1.6-4.7,0.2C35.4,52.6,33.1,51.3,30.8,49.8z"/>
			<path fill="#3A3A3A" d="M94.9,129.1c-0.1,6.5-5.6,11.9-12,11.9c-6.7,0-12-5.7-11.8-12.5c0.2-6.4,5.9-11.9,12.2-11.7
				C89.7,117,95,122.6,94.9,129.1z"/>
			<path fill="#3B3B3B" d="M67.7,142.7c-1.4,3.7-2.8,7.4-7.5,7.7c-4.8,0.3-6.5-3.3-8.3-6.8c0,0,0-0.2,0-0.2s-0.2,0-0.2,0
				c0-1.4,0-2.8-0.1-4.2c3-5.1,6.1-6.8,10.4-5.5C66.3,135.1,67.9,138.4,67.7,142.7z"/>
			<path fill="#3A3A3A" d="M109.2,133.5c5.9,4.3,6.7,7.5,3.2,13.4c-2.6,2.9-5.5,4.7-9.3,2.6c-3.5-1.9-5.5-7-4.5-10.5
				C99.9,135,103,133.4,109.2,133.5z"/>
			<path fill="#3D3D3D" d="M117.1,150.4c0.5-5,2.6-7.5,6.1-7.2c3.5,0.3,5.2,3.1,4.9,8C124.2,156.6,120.8,156.4,117.1,150.4z"/>
			<path fill="#E5EAF6" d="M127.3,101.6c-0.7,1.9-2,2.5-3.4,2.8c-1.5,0.3-2-0.5-1.7-1.9c0.4-1.8-0.7-3-1.5-4.2
				c-0.6-0.9-0.7-1.7,0.3-2.4c0.7-0.5,1.6-0.9,2.2-0.4C125.1,97.3,125,100.4,127.3,101.6z"/>
			<path fill="#3A3B3B" d="M48.8,147.8c-0.1,1.9,0,3.8-1.2,5.5c-4.6,2.7-8.3,1.8-9.3-2.2c-0.7-3-0.2-5.7,2.9-7.1
				C45.1,142.2,47.1,144.6,48.8,147.8z"/>
		</g>
	</g>
</g>
<g id="Layer_2">
</g>
</svg>
