<?xml version="1.0" encoding="utf-8"?>
<!-- Generator: Adobe Illustrator 18.1.0, SVG Export Plug-In . SVG Version: 6.00 Build 0)  -->
<svg version="1.1" id="Layer_1" xmlns="http://www.w3.org/2000/svg" xmlns:xlink="http://www.w3.org/1999/xlink" x="0px" y="0px"
	 viewBox="0 0 400 125" enable-background="new 0 0 400 125" xml:space="preserve">
<g>
	<path fill="#FFFFFF" d="M137,58.2c-0.2-0.2-0.5-0.4-0.9-0.7c-0.4-0.3-1-0.6-1.6-0.8c-0.6-0.3-1.3-0.5-2.1-0.7
		c-0.7-0.2-1.5-0.3-2.3-0.3c-1.4,0-2.4,0.3-3,0.8c-0.7,0.5-1,1.2-1,2.1c0,0.5,0.1,1,0.4,1.3c0.3,0.3,0.6,0.7,1.1,0.9
		c0.5,0.3,1.1,0.5,1.8,0.7c0.7,0.2,1.6,0.4,2.5,0.7c1.2,0.3,2.4,0.7,3.4,1.1c1,0.4,1.9,0.9,2.6,1.4c0.7,0.6,1.2,1.3,1.6,2.1
		c0.4,0.8,0.6,1.8,0.6,3c0,1.4-0.3,2.5-0.8,3.5c-0.5,1-1.2,1.8-2.1,2.4c-0.9,0.6-1.9,1-3,1.3c-1.1,0.3-2.3,0.4-3.6,0.4
		c-1.9,0-3.8-0.3-5.6-0.9s-3.5-1.4-5-2.5l2.2-4.3c0.2,0.2,0.6,0.5,1.2,0.8c0.6,0.3,1.2,0.7,2,1c0.8,0.3,1.6,0.6,2.5,0.9
		c0.9,0.2,1.9,0.4,2.9,0.4c2.7,0,4.1-0.9,4.1-2.6c0-0.6-0.2-1.1-0.5-1.4c-0.3-0.4-0.8-0.7-1.3-1s-1.3-0.6-2.1-0.8
		c-0.8-0.2-1.7-0.5-2.7-0.8c-1.2-0.3-2.3-0.7-3.2-1.1c-0.9-0.4-1.6-0.9-2.2-1.4c-0.6-0.5-1-1.2-1.3-1.9c-0.3-0.7-0.4-1.6-0.4-2.6
		c0-1.3,0.2-2.5,0.7-3.5c0.5-1,1.1-1.9,2-2.5c0.8-0.7,1.8-1.2,2.9-1.5c1.1-0.3,2.3-0.5,3.6-0.5c1.8,0,3.4,0.3,4.9,0.8
		c1.5,0.6,2.8,1.2,3.9,2L137,58.2z"/>
	<path fill="#FFFFFF" d="M157.8,72.9c1.2,0,2.1-0.2,2.9-0.7c0.8-0.5,1.4-1.1,1.9-1.9c0.5-0.8,0.8-1.7,1-2.7c0.2-1,0.3-2,0.3-3.1
		V51.5h4.9v13.1c0,1.8-0.2,3.4-0.6,4.9c-0.4,1.5-1.1,2.9-2,4c-0.9,1.2-2,2.1-3.4,2.7c-1.4,0.7-3.1,1-5,1c-2,0-3.7-0.4-5.2-1.1
		c-1.4-0.7-2.6-1.6-3.4-2.8c-0.9-1.2-1.5-2.5-1.9-4.1c-0.4-1.5-0.6-3.1-0.6-4.8V51.5h4.9v13.1c0,1.1,0.1,2.1,0.3,3.1
		c0.2,1,0.5,1.9,1,2.7c0.5,0.8,1.1,1.4,1.9,1.9C155.7,72.7,156.7,72.9,157.8,72.9z"/>
	<path fill="#FFFFFF" d="M241.6,74.2c-2,2-4.2,3.1-6.8,3.1c-1.6,0-3.1-0.4-4.6-1.1c-1.4-0.7-2.7-1.7-3.7-2.9
		c-1.1-1.2-1.9-2.6-2.5-4.2c-0.6-1.6-0.9-3.2-0.9-4.9c0-1.8,0.3-3.4,0.9-5c0.6-1.6,1.5-2.9,2.5-4.1c1.1-1.2,2.4-2.1,3.8-2.8
		c1.5-0.7,3.1-1,4.8-1c2.3,0,4.3,0.5,5.9,1.5c1.6,1,2.9,2.4,3.7,4.1l-3.7,2.7c-0.6-1.3-1.5-2.2-2.6-2.9c-1.1-0.7-2.3-1-3.6-1
		c-1,0-2,0.2-2.8,0.7c-0.8,0.5-1.6,1.1-2.2,1.9c-0.6,0.8-1.1,1.7-1.4,2.7c-0.3,1-0.5,2.1-0.5,3.3c0,1.2,0.2,2.3,0.5,3.4
		c0.4,1,0.9,2,1.5,2.7c0.6,0.8,1.4,1.4,2.3,1.8c0.9,0.4,1.8,0.7,2.9,0.7c2.3,0,4.4-1.2,6.3-3.5v-1.8h-5.1V64h9.2v13.2h-4.1V74.2z"/>
	<path fill="#FFFFFF" d="M270.9,72.8v4.4h-17.6V51.5h17.3v4.4h-12.4V62h10.7v4h-10.7v6.7H270.9z"/>
</g>
<path fill="#FFFFFF" d="M150.5,85.7c0,0,20-3.9,33.4-23.2c13.4-19.3,34.6-15.8,34.4-3.6c-0.1,6.8-6.2,8.9-6.2,8.9s2-8.8-4.2-7.4
	c-6.2,1.4-5.2,14.3,21.9,25.2H150.5z"/>
<path fill="none" stroke="#FFFFFF" stroke-width="10.4768" stroke-miterlimit="10" d="M267,87.2H123.1c-6.2,0-11.2-5-11.2-11.2V49.9
	c0-6.2,5-11.2,11.2-11.2H267c6.2,0,11.2,5,11.2,11.2V76C278.2,82.2,273.2,87.2,267,87.2z"/>
</svg>
