<?xml version="1.0" encoding="utf-8"?>
<!-- Generator: Adobe Illustrator 18.1.0, SVG Export Plug-In . SVG Version: 6.00 Build 0)  -->
<svg version="1.1" xmlns="http://www.w3.org/2000/svg" xmlns:xlink="http://www.w3.org/1999/xlink" x="0px" y="0px"
	 viewBox="0 0 44 55.2" enable-background="new 0 0 44 55.2" xml:space="preserve">
<g id="Layer_4">
	<path fill="#327CC9" d="M4.6,30.8c0,0,1.1,2,1.4,2.2c0.3,0.2,0.4-0.2,0.3-0.5s-1-1.7-0.6-1.8c0.4,0,1.1,1.8,1.4,1.9
		c0.3,0.2,0.6,2,1.7,2.4c0,0,0.8,0.3,1.3,0.2c0.5-0.1,3.2,2.3,3.4,2.6c0.1,0.4-0.5,0.9-0.7,1.1s-0.3,1.5-0.2,1.8
		c0.1,0.2,0.2,0.8,0.5,1.3c0.3,0.5,1.6,6,1.6,6L11.5,49L3.7,38.2L4.6,30.8z"/>
	<path fill="#327CC9" d="M24.5,16l0.5,1l0,1.8l1.8,0.6l1.9,1.6l2,0.3l2.1,1.6l0.5-0.8l1-0.1v-1.3l2.5,0.7l1.7,4l-0.5,1.2
		c0,0-0.7,1-1.2,1c-0.4-0.1-1.3-1.3-1.8-1.2c-0.5,0.1-1.2,1.6-1.5,1.8c-0.2,0.1-2-0.2-2.1,0c-0.1,0.2,0.6,0.9,0.5,1.2
		c-0.1,0.3-2.8,0.8-1.9,1.8s2.3,0,2.3,0s1.3-1.4,2.2-1.2c0.9,0.2,0.8,0.9,0.9,1.2c0.1,0.2,0.6,0.7,0.7,0.2c0.1-0.5,0.2-1.3,0.5-1
		c0.2,0.3,0.6,1.4,1,1.7c0.5,0.3,0.1-0.7,1.7-1.2c1.6-0.5,0.5,2.9,0.5,2.9s-0.1-0.2-0.7,0c-0.6,0.2-2.2,0.5-2.4,0.6
		c-0.2,0.1-1.3-1-1.8-1.8c-0.5-0.9-3.4-0.2-4.2,0.1s-0.7,1-0.7,1.2c-0.1,0.2-0.5,0.3-0.9,0.5s-0.7,0.9-0.7,1.3
		c0,0.4,0.7,3.2,0.7,3.2s1.1,0.9,1.8,0.9s2.3,0,2.3,0s0.5,0.2,0.6,0.4c0.1,0.2,0,2.1,0,2.1l0.2,1.3l0.1,1.6l-3.1,4.2l-5.2,1.5
		l-2.1-4.3l-4.3-7.7l-2.1-1.7l-1-0.1L14,36.8c0,0-1.3-0.7-1.5-0.9s-2.4-2.3-2.6-2.4c-0.2-0.1-0.5-0.9-0.5-1.3c0-0.4,2.6-0.6,2.8-0.5
		c0,0,0.3,0.3,0.3,0.4c0.2,0.4,0.2,0.9,0.3,1.2c0.1,0.3,0.5,0.4,0.5,0.1s0-0.5,0.1-1c0-0.4,0.1-0.8,0.2-1c0,0,0.5,0.1,0.5-0.1
		c0.1-0.2,0.1-1,0.1-1s1.1-0.9,1.3-0.8c0.1,0.1,1.4-0.8,1.4-1c0-0.2,0.9-0.2,0.9-0.1s0.4,0.1,0.3-0.2s-0.3-0.8-0.6-0.7
		c-0.3,0.1-0.2-0.4-0.2-0.4s0.5-0.1,0.7,0c0.3,0.1,0,0.4,0.3,0.5s1.8-0.4,1.8-0.7c-0.1-0.3-1.9-1.8-2.1-2.2c-0.2-0.4,0-1-0.2-1
		s-0.7,0-0.8,0.2s-0.7,0.1-0.7,0.1s-0.7-1.4-1.2-1.4c-0.5,0-0.8,0.6-0.8,1.1c0,0.5,0.3,0.6,0.3,0.9c0.1,0.3-0.1,0.8-0.1,0.8
		s-0.5,0.7-1.3,0.1s-2.1-1.6-2.3-1.8c-0.2-0.2-0.1-1.1,0-1.3s0.8-1.2,1.2-1.3s1.7-0.3,1.6-0.7c-0.1-0.3-0.6-0.9-1.5-0.7
		c0,0-0.2,0.3-0.6,0.4s-0.3-0.5-0.3-0.5s1-0.8,1.4-0.7s0.6,0.6,1,0.5s0-1,0.2-1.1s1.1-0.4,1.4-0.3s0.7,0.5,1.3,0.3
		c0.6-0.1,2.4-2.2,3.1-3c0.7-0.8,5-0.1,5-0.1L24.5,16z M32,26.5c0,0.3,0,0.8,0.4,1s1.1-0.7,1-0.9s-0.7-0.3-0.7-0.4
		c0-0.2,0-0.6-0.4-0.9c-0.4-0.4-1.1,0.4-0.9,0.7C31.4,25.9,32,26.2,32,26.5z"/>
	<polygon opacity="0.77" fill="#327CC9" points="17.9,49.9 15.6,49.6 17.4,48.5 	"/>
</g>
<g id="Layer_2">
	<path fill="#232323" d="M36.7,13.9l-1.9,1.8c0,0-5.6-5.5-12.9-5.2C14.6,10.8,10.4,15,10.4,15l-2.7-1.6c0,0,4.3-5.3,14.2-5.7
		C31.7,7.7,36.7,13.9,36.7,13.9z"/>
	<path fill="#232323" d="M40.4,10.2l-2.5,2c0,0-7.4-6.7-16.4-6.5S6.9,11.2,6.9,11.2l-3-1.8c0,0,5.3-6.7,17.3-7.1
		S40.4,10.2,40.4,10.2z"/>
	<path fill="#232323" d="M42.1,32.9c0,11-9,20-20.1,20s-20.1-8.9-20.1-20s9-20,20.1-20S42.1,21.9,42.1,32.9z M22,15.6
		c-9.7,0-17.5,7.8-17.5,17.4S12.3,50.4,22,50.4S39.5,42.6,39.5,33S31.7,15.6,22,15.6z"/>
</g>
<g id="Layer_3">
	<ellipse fill="#232323" cx="21.8" cy="34.1" rx="3.2" ry="3.2"/>
	<ellipse fill="#232323" cx="15.6" cy="37.3" rx="2.2" ry="2.1"/>
	<ellipse fill="#232323" cx="28" cy="37.3" rx="2.2" ry="2.1"/>
	<ellipse fill="#232323" cx="11.4" cy="39.2" rx="1.4" ry="1.4"/>
	<ellipse fill="#232323" cx="32.2" cy="39.2" rx="1.4" ry="1.4"/>
	<g>
		<defs>
			<rect id="SVGID_1_" x="16" y="37.8" width="11.6" height="13.1"/>
		</defs>
		<clipPath id="SVGID_2_">
			<use xlink:href="#SVGID_1_"  overflow="visible"/>
		</clipPath>
		<path clip-path="url(#SVGID_2_)" fill="#232323" d="M26.9,44.2c0.1,4.1,0,7.2-0.3,9.6c-0.9,9.8-8.8,6.5-9.5,0
			c-0.3-2.5-0.4-5.6-0.2-9.8c-0.1-4.8,2.8-6.1,4.9-6.1S26.8,39.6,26.9,44.2z"/>
	</g>
	<path fill="#232323" d="M31.2,47.9c0,0,0-4.4,0-5.2s-1.3-3.2-4.3-2.4c0.5,1.4,0.4,1,0.5,9.4"/>
	<path fill="#232323" d="M12.4,47.9c0,0,0-4.4,0-5.2c0-0.8,1.3-3.2,4.3-2.4c-0.5,1.4-0.4,1-0.5,9.4"/>
	<path fill="#232323" d="M34.7,47c0,0,0-3.2,0-3.8s-1-2.3-3.2-1.7c0.4,1.1,0.3,0.8,0.4,7"/>
	<path fill="#232323" d="M8.8,47c0,0,0-3.2,0-3.8c0-0.6,1-2.3,3.2-1.7c-0.4,1.1-0.3,0.8-0.4,7"/>
</g>
</svg>
