<?xml version="1.0" encoding="utf-8"?>
<!-- Generator: Adobe Illustrator 18.1.0, SVG Export Plug-In . SVG Version: 6.00 Build 0)  -->
<svg version="1.1" xmlns="http://www.w3.org/2000/svg" xmlns:xlink="http://www.w3.org/1999/xlink" x="0px" y="0px"
	 viewBox="0 0 448.5 336" enable-background="new 0 0 448.5 336" xml:space="preserve">
<g id="Layer_2">
	<polygon fill="#232323" points="332.6,154.6 262.1,193.4 256.1,180.4 329.9,140.6 	"/>
	<path fill="#232323" d="M231.1,184.4c0,0-37.5-17.3-41.8-17.4c-4.2-0.1-54.2,28.9-54.2,28.9l5.2,11.5c0,0,48-27.2,50-27
		s33.5,13,33.5,13L231.1,184.4z"/>
	<path fill="#232323" d="M144.8,204.9c0,0-69.2,36.3-71.7,37.5c-2.5,1.2-10.7-7.8-7.8-9.5c3-1.7,74.2-39.5,74.2-39.5L144.8,204.9z"
		/>
	<g>
		<path fill="#232323" d="M175.8,139.7c0.3,1.8,0.7,3.1,1.5,4c1.3,1.6,3.7,2.4,6.9,2.4c2,0,3.5-0.2,4.8-0.6c2.3-0.8,3.5-2.3,3.5-4.5
			c0-1.3-0.6-2.3-1.7-3c-1.1-0.7-2.9-1.3-5.4-1.8l-4.2-0.9c-4.1-0.9-7-1.9-8.5-3c-2.6-1.8-3.9-4.6-3.9-8.4c0-3.5,1.3-6.4,3.8-8.7
			c2.6-2.3,6.3-3.5,11.3-3.5c4.1,0,7.7,1.1,10.6,3.3c2.9,2.2,4.5,5.3,4.6,9.5h-7.8c-0.1-2.3-1.2-4-3.1-5c-1.3-0.7-2.9-1-4.8-1
			c-2.1,0-3.9,0.4-5.1,1.3c-1.3,0.8-1.9,2-1.9,3.5c0,1.4,0.6,2.4,1.9,3.1c0.8,0.5,2.5,1,5.2,1.6l6.8,1.6c3,0.7,5.2,1.6,6.7,2.8
			c2.3,1.8,3.5,4.5,3.5,7.9c0,3.6-1.4,6.5-4.1,8.9c-2.7,2.3-6.6,3.5-11.6,3.5c-5.1,0-9.1-1.2-12.1-3.5c-2.9-2.3-4.4-5.5-4.4-9.5
			H175.8z"/>
		<path fill="#232323" d="M234.7,119.7h-20.6v8.3H233v6.8h-18.9v10h21.5v7h-29.5v-38.9h28.5V119.7z"/>
		<path fill="#232323" d="M271.9,148.2c-2.9,3-7.2,4.5-12.7,4.5c-5.6,0-9.8-1.5-12.7-4.5c-3.9-3.7-5.9-9.1-5.9-16
			c0-7.1,2-12.5,5.9-16c2.9-3,7.2-4.5,12.7-4.5c5.6,0,9.8,1.5,12.7,4.5c3.9,3.6,5.9,8.9,5.9,16C277.8,139.2,275.8,144.5,271.9,148.2
			z M266.8,142.3c1.9-2.4,2.8-5.8,2.8-10.1c0-4.4-0.9-7.7-2.8-10.1c-1.9-2.4-4.4-3.6-7.7-3.6c-3.2,0-5.8,1.2-7.7,3.6
			c-1.9,2.4-2.9,5.8-2.9,10.1c0,4.4,1,7.8,2.9,10.1c1.9,2.4,4.5,3.6,7.7,3.6C262.4,145.9,265,144.7,266.8,142.3z"/>
	</g>
</g>
<g id="Layer_3">
	<circle fill="#327CC9" cx="347.6" cy="142.6" r="22.5"/>
	<circle fill="#327CC9" cx="243.6" cy="194.6" r="22.5"/>
	<circle fill="#327CC9" cx="120.2" cy="204.9" r="22.5"/>
	<path fill="#232323" d="M52.1,9.4c40.8,0,298.4,0,342.8,0s43-1,43.2,18.7s0,253.3,0,276.3c0,23,0.8,23-43.2,23s-301.6,0-342.8,0
		s-41.3,0.7-41.7-18.1c-0.4-18.9-1-255.1,0-277.5S11.4,9.4,52.1,9.4z M27.1,154.2c-7.6,0-13.7,6.2-13.7,13.7
		c0,7.6,6.2,13.7,13.7,13.7s13.7-6.2,13.7-13.7C40.9,160.4,34.7,154.2,27.1,154.2z M402.7,48.1H44.4v242.7h358.3V48.1z"/>
</g>
</svg>
