<?xml version="1.0" encoding="utf-8"?>
<!-- Generator: Adobe Illustrator 18.1.0, SVG Export Plug-In . SVG Version: 6.00 Build 0)  -->
<svg version="1.1" id="Layer_1" xmlns="http://www.w3.org/2000/svg" xmlns:xlink="http://www.w3.org/1999/xlink" x="0px" y="0px"
	 viewBox="0 0 165 165" enable-background="new 0 0 165 165" xml:space="preserve">
<g>
	<path fill="#357BBF" d="M2.1,83.4c0-0.8,0-1.7,0-2.5c0.2-0.4,0.5-0.9,0.6-1.3C4.2,73,5.6,66.5,6.9,59.9c0.4-1.9,1.2-2.5,2.9-3
		c4.8-1.4,10.3-0.8,14-5c2.4,2.2,4.5,4.1,4,7.8c-0.8,5.4-1,10.9-1.7,16.3c-0.5,3.8,0.1,6.8,3.6,8.8c4.1-3.4,4.1-3.6,3.6-8.5
		c-0.6-5.3-0.8-10.7-1.6-16c-0.6-3.9,1.1-6.3,3.5-8c2.2,1.1,4,2.2,5.9,2.7c2.8,0.8,5.7,1.4,8.6,1.9c1.9,0.3,2.6,1.1,2.9,3
		c0.7,4,1.7,7.9,2.7,12.3c6.5-2.5,14.3-1,19.2-7.2c5.6,4.8,6.1,5.5,5.6,10.2c-0.7,7.8-1.3,15.7-2.4,23.5c-0.8,5.4,0.1,9.6,5.3,12.7
		c1.5-1.7,3.2-3.4,4.7-5.2c0.4-0.5,0.6-1.3,0.5-2C87.4,95,87,85.8,85.5,76.9c-1-5.8,1.9-8.7,5.6-11.9c5,6.4,12.7,4.7,19.1,7.3
		c1-4.3,2-8.2,2.7-12.2c0.3-2,1.3-2.6,3.2-3.2c4.7-1.4,10.2-0.6,14.4-5.7c1.3,2.6,3.3,4.7,3.3,6.8c-0.1,6.3-0.6,12.6-1.6,18.8
		c-0.6,3.9,1,6.1,3.7,8.1c4-3.7,4-3.7,3.6-8.1c-0.4-5.1-0.7-10.3-1.6-15.3c-0.7-4.2,0.3-7.1,3.1-8.9c3.1,1.2,5.7,2.8,8.4,3
		c7,0.4,10.1,3.7,10.7,10.7c0.5,5.3,3.4,10.6,2.8,15.6c-0.5,5-4.4,9.6-6,14.7c-1.9,6-5.3,7.8-11.5,7.3c-8.1-0.6-16.3-0.2-24-0.2
		c-0.4,2.5-0.2,4.7-1.1,6.6c-3.8,8.4-7.8,16.7-11.7,25.1c-0.8,1.6-1.6,2.3-3.5,2.3c-15-0.1-30-0.1-45,0c-1.7,0-2.6-0.5-3.3-2.1
		c-3.4-7.5-7.1-14.9-10.5-22.5c-1.2-2.8-1.8-5.9-2.8-9.4c-7.7,0-16.5-0.4-25.1,0.1c-5.1,0.3-7.7-1.4-9.4-6.1
		C7.2,92.8,4.4,88.2,2.1,83.4z"/>
	<path fill="#FFFFFF" d="M32.9,24.9c4.2,2,7.9,4.5,9.3,9.3c1.9,6.7-1.5,13.6-8,16c-6.6,2.5-13.9-0.7-16.6-7.2
		c-2.7-6.3,0.1-13.6,6.3-16.8c0.9-0.5,1.8-0.9,2.7-1.3C28.7,24.9,30.8,24.9,32.9,24.9z"/>
	<path fill="#FFFFFF" d="M138.7,24.9c4.4,2,8.2,4.6,9.5,9.6c1.8,6.7-1.6,13.4-8.1,15.7c-6.3,2.3-13.2-0.5-16.2-6.5
		c-3-6.1-0.9-13.5,5-17c1.1-0.7,2.3-1.3,3.5-1.9C134.5,24.9,136.6,24.9,138.7,24.9z"/>
	<path fill="#FFFFFF" d="M101,45.5c0,10.2-8.2,18.4-18.4,18.4c-10.1,0-18.2-8.3-18.2-18.6c0-10.1,8.1-18.1,18.2-18.2
		C92.8,27.1,101,35.3,101,45.5z"/>
</g>
</svg>
