<?xml version="1.0" encoding="utf-8"?>
<!-- Generator: Adobe Illustrator 18.1.0, SVG Export Plug-In . SVG Version: 6.00 Build 0)  -->
<svg version="1.1" id="Layer_1" xmlns="http://www.w3.org/2000/svg" xmlns:xlink="http://www.w3.org/1999/xlink" x="0px" y="0px"
	 viewBox="0 0 165 207" enable-background="new 0 0 165 207" xml:space="preserve">
<g>
	<g id="XMLID_1_">
		<g>
			<path fill="#327CC9" d="M154.8,87.5c7.1,13.9,9.6,28.7,4.6,43.9c-6,18.2-22.4,29.7-42.7,30.2c-2.4,0.1-4.8,0-7.1,0c0,0,0,0,0,0
				c-2.9,0-5.9-0.1-8.8,0c-10.7,0.5-16.4,11-11.1,20.2c0.6,1,1.2,1.9,1.9,2.8c3.6,4.4,4,9.2,1.5,14.1c-2.6,5.1-6.9,7.8-12.5,7.6
				c-22.6-0.5-42.3-8.3-57.8-24.9C-9.7,147-7.1,94.9,28.7,64.1C49.3,46.3,73.6,41.3,100,47C124.2,52.2,143.3,65.1,154.8,87.5z
				 M143.9,112.3c0.1-7-6.3-13.5-13.3-13.6c-7.1-0.1-13.4,6.1-13.5,13.3c-0.1,7.2,6.1,13.5,13.2,13.6
				C137.3,125.7,143.8,119.4,143.9,112.3z M116.9,76.4c0.1-7-6.3-13.5-13.4-13.6c-7.1-0.1-13.4,6.2-13.5,13.4
				c0,7.3,6.1,13.4,13.3,13.5C110.6,89.7,116.9,83.5,116.9,76.4z M71.9,76.4c0.1-7.2-6.1-13.5-13.3-13.6c-7-0.1-13.5,6.3-13.6,13.4
				c-0.1,7.1,6.2,13.4,13.4,13.5C65.7,89.7,71.9,83.6,71.9,76.4z M31.8,125.6c7.1-0.1,13.2-6.4,13.1-13.7
				c-0.1-7.2-6.4-13.4-13.6-13.2c-7.1,0.1-13.4,6.6-13.3,13.7C18.3,119.5,24.7,125.8,31.8,125.6z"/>
			<path fill="#FFFFFF" d="M130.5,98.7c7.1,0.1,13.4,6.5,13.3,13.6c-0.1,7.1-6.5,13.4-13.6,13.3c-7.1-0.1-13.3-6.4-13.2-13.6
				C117.1,104.9,123.4,98.7,130.5,98.7z"/>
			<path fill="#FFFFFF" d="M103.6,62.8c7.1,0.1,13.5,6.5,13.4,13.6c-0.1,7.1-6.4,13.3-13.6,13.3c-7.2,0-13.3-6.2-13.3-13.5
				C90.1,69,96.4,62.7,103.6,62.8z"/>
			<path fill="#FFFFFF" d="M58.6,62.8c7.1,0.1,13.3,6.4,13.3,13.6c0,7.2-6.2,13.3-13.5,13.3c-7.2-0.1-13.5-6.4-13.4-13.5
				C45.1,69.1,51.6,62.7,58.6,62.8z"/>
			<path fill="#FFFFFF" d="M44.9,112c0.1,7.2-6,13.5-13.1,13.7c-7.1,0.1-13.5-6.1-13.7-13.2c-0.2-7,6.2-13.5,13.3-13.7
				C38.5,98.6,44.9,104.8,44.9,112z"/>
		</g>
		<g>
		</g>
	</g>
</g>
</svg>
