<?xml version="1.0" encoding="utf-8"?>
<!-- Generator: Adobe Illustrator 18.1.0, SVG Export Plug-In . SVG Version: 6.00 Build 0)  -->
<svg version="1.1" xmlns="http://www.w3.org/2000/svg" xmlns:xlink="http://www.w3.org/1999/xlink" x="0px" y="0px"
	 viewBox="0 0 284.3 176.3" enable-background="new 0 0 284.3 176.3" xml:space="preserve">
<g id="Layer_2">
	<path fill="#232323" d="M34.4,76.8h-12c0,0-1.2-62.4-0.8-63.4S19.9,6.2,28.3,6c8.4-0.2,186.6-0.2,188.1,0s6.2-0.2,6.2,5
		s0,25.9,0,25.9l-12.5-0.1L209.9,19h-175L34.4,76.8z"/>
	<polygon fill="#232323" points="152.4,49.5 152.4,62 168.9,72.2 152.4,83.2 152.4,96 185.9,76.8 185.9,68.8 	"/>
	<polygon fill="#232323" points="78.9,61 61.9,72.8 78.9,82.5 78.9,96 45.2,76.8 45.2,70 78.9,49.5 	"/>
	<path fill="#232323" d="M144.4,146h-43.3c0,0,0,7-1.4,11.8s-8.1,5.6-8.1,6.5s0,2.8,0,2.8h61.9c0,0,0.2-2.1,0-2.9s-7-2-8.4-6.6
		S144.4,146,144.4,146z"/>
	<path fill="#232323" d="M9.3,84.3c0,0,37,0,38.3,0c1.3,0,4.8,0.3,4.8,5.2s0,74.7,0,76.2s0.7,6.3-4.8,6.3s-35.2,0-38.3,0
		s-4.7-1-4.7-5s0-76.5,0-76.5S4.5,84.3,9.3,84.3z M28.3,160.5c-2,0-3.7,1.6-3.7,3.7c0,2,1.6,3.7,3.7,3.7s3.7-1.6,3.7-3.7
		C32,162.1,30.4,160.5,28.3,160.5z M23.8,92.2c-0.2,0.3-0.3,2,0,2.2c0.3,0.2,9.2,0.2,9.3,0c0.1-0.2,0.2-1.9,0-2.2
		C33,91.9,24,91.9,23.8,92.2z"/>
	<path fill="#232323" d="M197.1,44.7c0,0,70.8,0,73.3,0s9.2,0.5,9.2,7.2s0,104.2,0,106.3s1.3,8.8-9.2,8.8c-10.5,0-67.3,0-73.3,0
		c-6.1,0-8.9-1.4-8.9-7c0-5.6,0-106.8,0-106.8S187.8,44.7,197.1,44.7z M234,151.4c-2.8,0-5.1,2.3-5.1,5.1s2.3,5.1,5.1,5.1
		s5.1-2.3,5.1-5.1S236.8,151.4,234,151.4z M247.7,151.4c-2.8,0-5.1,2.3-5.1,5.1s2.3,5.1,5.1,5.1s5.1-2.3,5.1-5.1
		S250.5,151.4,247.7,151.4z M219.5,151.4c-2.8,0-5.1,2.3-5.1,5.1s2.3,5.1,5.1,5.1s5.1-2.3,5.1-5.1S222.3,151.4,219.5,151.4z"/>
	<path fill="#232323" d="M68.4,33.4c2.6-2.7,70.3,53.9,65.8,56c0,0,5.7,6.9,6.5,7.1c0.8,0.2,7.2,1,9.4,4.7
		c3.2,5.5,1.4,10.2,1.4,10.2s-0.6,1-1.5,0c-1-1-2.8-2.5-7.4-4.1c-4.5-1.6-5.9-7.2-5.9-7.2s-2.7-2.9-6.1-6
		C126.9,97.9,65.8,36.2,68.4,33.4z"/>
</g>
<g id="Layer_3">
	<path fill="#232323" d="M180.9,114.2V139H59.7v-24.8H180.9z M122.5,120.7c-3.3,0-5.9,2.7-5.9,5.9s2.7,5.9,5.9,5.9s5.9-2.7,5.9-5.9
		S125.8,120.7,122.5,120.7z"/>
	<rect x="9.3" y="98.5" opacity="0.87" fill="#327CC9" width="38.3" height="59"/>
	<rect x="194.6" y="52.8" opacity="0.87" fill="#327CC9" width="78.1" height="94"/>
</g>
</svg>
