<?xml version="1.0" encoding="utf-8"?>
<!-- Generator: Adobe Illustrator 18.1.0, SVG Export Plug-In . SVG Version: 6.00 Build 0)  -->
<svg version="1.1" id="Layer_1" xmlns="http://www.w3.org/2000/svg" xmlns:xlink="http://www.w3.org/1999/xlink" x="0px" y="0px"
	 viewBox="0 0 99.2 90.7" enable-background="new 0 0 99.2 90.7" xml:space="preserve">
<circle fill="#C6C6C6" cx="49.8" cy="45.3" r="42.1"/>
<circle fill="#C6C6C6" cx="-54.5" cy="45.4" r="42.1"/>
<g>
	<g>
		<path fill="#FFFFFF" d="M-42.7,59.6h-5.7c-1.7,0-5.2-0.6-6.5-1.9c-1.3-1.3-1.9-2.8-1.9-4.5v-6.4h14c1.8,0,3.3-0.6,4.6-1.9
			c1.3-1.3,1.9-2.8,1.9-4.6c0-1.8-0.6-3.3-1.9-4.6c-1.3-1.3-2.8-1.9-4.6-1.9h-14v-6.5c0-1.8-0.6-3.3-1.9-4.6
			c-1.3-1.3-2.8-1.9-4.6-1.9c-1.8,0-3.3,0.6-4.6,1.9c-1.3,1.3-1.9,2.8-1.9,4.6v25.7c0,5.3,1.9,9.9,5.7,13.6
			c3.8,3.8,8.4,5.7,13.7,5.7h7.6c1.8,0,3.3-0.6,4.6-1.9c1.3-1.3,1.9-2.8,1.9-4.6c0-1.8-0.6-3.3-1.9-4.6
			C-39.5,60.3-41,59.6-42.7,59.6z"/>
	</g>
</g>
<path fill="#FFFFFF" d="M35.3,35.1h6.2v-2.8v-2.8v-0.5c0-2.7,0.1-6.8,2-9.3c2-2.7,4.8-4.5,9.6-4.5c7.8,0,11.1,1.1,11.1,1.1l-1.6,9.2
	c0,0-2.6-0.7-5-0.7c-2.4,0-4.6,0.9-4.6,3.3v1v3.2v2.8H63l-0.7,9h-9.2v31.2H41.5V44.1h-6.2V35.1"/>
<circle fill="#C6C6C6" cx="-54.5" cy="141.3" r="42.1"/>
<g>
	<polygon fill="#FFFFFF" points="-31.5,124.1 -54.2,146.9 -77,124.1 	"/>
	<polygon fill="#FFFFFF" points="-80.2,124.1 -60.7,143.6 -80.2,163.1 	"/>
	<polygon fill="#FFFFFF" points="-28.2,163.1 -47.7,143.6 -28.2,124.1 	"/>
	<polygon fill="#FFFFFF" points="-77,163.1 -59.1,145.2 -54.2,150.1 -49.4,145.2 -31.5,163.1 	"/>
</g>
<circle fill="#C6C6C6" cx="258.4" cy="44.4" r="42.1"/>
<circle fill="#FFFFFF" cx="274.6" cy="45.3" r="12"/>
<circle fill="#FFFFFF" cx="243.1" cy="45.4" r="12"/>
<g>
	<path fill="#C6C6C6" d="M154.1,3.1c-23.3,0-42.3,18.9-42.3,42.3c0,17.3,10.4,32.2,25.3,38.7c-0.1-3,0-6.5,0.7-9.7
		c0.8-3.4,5.4-23,5.4-23s-1.4-2.7-1.4-6.7c0-6.3,3.6-10.9,8.2-10.9c3.8,0,5.7,2.9,5.7,6.3c0,3.9-2.5,9.6-3.7,15
		c-1.1,4.5,2.2,8.1,6.7,8.1c8,0,13.4-10.3,13.4-22.5c0-9.3-6.2-16.2-17.6-16.2c-12.8,0-20.8,9.6-20.8,20.2c0,3.7,1.1,6.3,2.8,8.3
		c0.8,0.9,0.9,1.3,0.6,2.4c-0.2,0.8-0.7,2.7-0.9,3.4c-0.3,1.1-1.1,1.5-2.1,1.1c-5.9-2.4-8.7-8.9-8.7-16.1c0-12,10.1-26.4,30.2-26.4
		c16.1,0,26.8,11.7,26.8,24.2c0,16.6-9.2,29-22.8,29c-4.6,0-8.9-2.5-10.3-5.3c0,0-2.5,9.7-3,11.6c-0.9,3.3-2.7,6.5-4.3,9.1
		c3.8,1.1,7.8,1.7,12,1.7c23.3,0,42.3-18.9,42.3-42.3C196.3,22.1,177.4,3.1,154.1,3.1z"/>
</g>
<circle fill="#C6C6C6" cx="49.5" cy="141.3" r="42.1"/>
<g>
	<g>
		<g>
			<path fill="#FFFFFF" d="M27.3,115.1v9.9c21.8,0,39.5,17.7,39.5,39.5h9.9C76.7,137.2,54.6,115.1,27.3,115.1z"/>
		</g>
	</g>
	<g>
		<g>
			<path fill="#FFFFFF" d="M27.3,129.9v9.9c13.6,0,24.7,11.1,24.7,24.7h9.9C61.9,145.4,46.4,129.9,27.3,129.9z"/>
		</g>
	</g>
	<circle fill="#FFFFFF" cx="35" cy="156.8" r="7.7"/>
</g>
<circle fill="#C6C6C6" cx="153.5" cy="141.3" r="42.1"/>
<path fill="#FFFFFF" d="M150.6,114.7v12.9h12.9v10h-12.9v14.3c0,3.2,0,5.1,0.3,6c0.3,0.9,1.2,1.9,2.1,2.4c1.2,0.7,2.6,1.1,4.2,1.1
	c2.8,0,5.6-0.9,8.4-2.8v8.8c-2.4,1.1-4.5,1.9-6.5,2.4c-1.9,0.4-4,0.7-6.3,0.7c-2.6,0-4.1-0.3-6-1c-2-0.6-3.6-1.6-5-2.8
	c-1.4-1.2-2.3-2.5-2.9-3.8c-0.5-1.3-0.8-3.3-0.8-5.8v-19.6h-7.6v-7.9c2.2-0.7,4.7-1.7,6.3-3.1c1.6-1.3,2.8-2.9,3.8-4.8
	c0.9-1.9,1.6-4.2,2-7.1H150.6z"/>
<circle fill="#FFFFFF" cx="172.9" cy="163.4" r="4.3"/>
</svg>
