<?xml version="1.0" encoding="utf-8"?>
<!-- Generator: Adobe Illustrator 18.1.0, SVG Export Plug-In . SVG Version: 6.00 Build 0)  -->
<svg version="1.1" id="Layer_1" xmlns="http://www.w3.org/2000/svg" xmlns:xlink="http://www.w3.org/1999/xlink" x="0px" y="0px"
	 viewBox="0 0 165 207" enable-background="new 0 0 165 207" xml:space="preserve">
<g>
	<path fill="#327CC9" d="M82.2,23.4c44-0.4,80.2,35.7,80.4,79.9c0.2,44-36,80.3-80.1,80.2c-44,0-79.5-35.3-80.1-79.6
		C1.8,60.1,37.8,23.8,82.2,23.4z M105.7,46.5c-0.2-0.9-0.4-1.8-0.6-2.6c-13.7,0.7-27.4,0.9-41,2.5C59,46.9,53.6,50,49.3,53.2
		c-8.8,6.5-12.4,15.8-10,26.5c2.2,10.1,9.2,16.1,19.3,18.2c3.1,0.7,6.3,0.5,8.4,0.7c1.1,5.7,2.2,10.9,3.3,16.2
		c-3.4,0.4-7.4,0.3-10.9,1.6c-6.9,2.4-14.5,4.4-20.2,8.6c-12.3,9.1-10.5,25.1,2.8,32.7c14.3,8.1,39.4,6.1,52.2-4.2
		c13-10.5,13.7-26.1,1.6-37.6c-2.9-2.8-6.2-5.2-9.3-7.8c-5.6-4.8-5.8-8.7-0.6-14c1.8-1.8,3.9-3.3,5.7-5.1
		c9.6-9.6,10.2-22.9,1.5-33.4c-1-1.3-2.1-2.5-2.6-3.2C95.5,50.2,100.6,48.3,105.7,46.5z M130.1,78.5c-2.9,0.1-4.9,0.2-7.3,0.3
		c-0.2,5.2-0.5,10-0.7,15.4c-5.3,0-9.9,0-14.6,0c0,2.7,0,4.7,0,7.2c5.1,0.2,9.9,0.4,15.2,0.7c0,5.3,0,9.9,0,14.7c2.8,0,4.9,0,7.7,0
		c0-5.2,0-9.8,0-14.7c5.3-0.3,10.1-0.5,15.3-0.7c-0.2-2.8-0.3-4.8-0.4-6.9c-5.3-0.3-10-0.5-15.1-0.8
		C130.1,88.3,130.1,83.9,130.1,78.5z"/>
	<path fill="#FFFFFF" d="M105.7,46.5c-5.1,1.9-10.2,3.8-15.4,5.7c0.6,0.7,1.6,2,2.6,3.2c8.7,10.5,8.2,23.8-1.5,33.4
		c-1.8,1.8-3.9,3.3-5.7,5.1c-5.2,5.2-5,9.2,0.6,14c3.1,2.6,6.4,5,9.3,7.8c12.1,11.5,11.3,27.1-1.6,37.6
		c-12.8,10.3-37.9,12.4-52.2,4.2C28.5,150,26.7,134,39,124.9c5.7-4.2,13.3-6.2,20.2-8.6c3.5-1.2,7.5-1.1,10.9-1.6
		c-1.1-5.3-2.1-10.5-3.3-16.2c-2.1-0.1-5.3,0-8.4-0.7c-10-2.1-17.1-8.1-19.3-18.2c-2.4-10.7,1.3-20,10-26.5
		c4.3-3.2,9.7-6.3,14.9-6.9c13.6-1.6,27.3-1.7,41-2.5C105.3,44.7,105.5,45.6,105.7,46.5z M70.1,157.3c0.2-0.3,0.3-0.6,0.5-0.9
		c3.1-0.4,6.3-0.7,9.4-1.4c6.7-1.5,11.9-5,13.5-12c1.6-6.8-1.6-11.9-6.5-16.3c-10-9-22.5-10.1-34.4-2.8
		c-10.7,6.5-11.4,20.1-0.8,26.7C57.3,153.9,63.9,155.1,70.1,157.3z M85.4,80.8C85,69.6,82.8,61.5,76.5,55c-4-4.2-9-5.7-14.6-3.9
		c-5.3,1.7-8.6,5.4-9.3,11c-1.3,9.5,0.7,18.2,6.7,25.8c4.4,5.7,10.9,7.4,17.1,5.2C82.4,90.9,85.4,85.9,85.4,80.8z"/>
	<path fill="#FFFFFF" d="M130.1,78.5c0,5.4,0,9.8,0,15c5.1,0.3,9.8,0.5,15.1,0.8c0.1,2.2,0.3,4.2,0.4,6.9c-5.2,0.3-9.9,0.5-15.3,0.7
		c0,4.9,0,9.5,0,14.7c-2.7,0-4.9,0-7.7,0c0-4.7,0-9.3,0-14.7c-5.3-0.2-10.1-0.4-15.2-0.7c0-2.4,0-4.4,0-7.2c4.7,0,9.3,0,14.6,0
		c0.3-5.4,0.5-10.1,0.7-15.4C125.2,78.7,127.2,78.6,130.1,78.5z"/>
	<path fill="#327CC9" d="M70.1,157.3c-6.1-2.2-12.8-3.4-18.2-6.8c-10.7-6.6-10-20.2,0.8-26.7c12-7.2,24.4-6.2,34.4,2.8
		c4.9,4.4,8.1,9.5,6.5,16.3c-1.7,7-6.8,10.6-13.5,12c-3.1,0.7-6.3,0.9-9.4,1.4C70.4,156.7,70.2,157,70.1,157.3z"/>
	<path fill="#327CC9" d="M85.4,80.8c0.1,5.2-2.9,10.1-9,12.3c-6.3,2.2-12.7,0.5-17.1-5.2c-5.9-7.6-8-16.3-6.7-25.8
		c0.8-5.6,4-9.4,9.3-11c5.6-1.8,10.6-0.2,14.6,3.9C82.8,61.5,85,69.6,85.4,80.8z"/>
</g>
</svg>
