<?xml version="1.0" encoding="utf-8"?>
<!-- Generator: Adobe Illustrator 18.1.0, SVG Export Plug-In . SVG Version: 6.00 Build 0)  -->
<svg version="1.1" id="Layer_1" xmlns="http://www.w3.org/2000/svg" xmlns:xlink="http://www.w3.org/1999/xlink" x="0px" y="0px"
	 viewBox="0 0 165 207" enable-background="new 0 0 165 207" xml:space="preserve">
<g>
	<g id="XMLID_1_">
		<g>
			<path fill="#FFFFFF" d="M162,60.5c0,15.9,0,31.9,0,47.8c-5.3,1-10.6,2.1-15.9,2.9c-4.4,0.7-8.1-0.6-11.3-3.8
				C124.6,97.2,114.3,87,104,76.9c-4.5-4.4-8-5.1-13.7-2.3c-6.9,3.5-13.8,7.1-20.6,10.7c-3.6,1.9-7.1,2.2-10.6-0.1
				c-5.4-3.7-5.3-11.8,0.4-15.1c13.1-7.6,26.3-14.8,39.4-22.2c4.6-2.6,8.9-2.2,13,1.1c5.4,4.5,11,8.8,16.2,13.5
				c3.5,3.1,7.1,3.8,11.5,2.8c6.8-1.6,13.7-3.1,20.6-4.6C160.8,60.5,161.4,60.5,162,60.5z"/>
			<path fill="#327CC9" d="M128.2,116c3.4,3.4,3.7,7.9,0.7,10.8c-3,2.8-7.1,2.6-10.5-0.7c-2.8-2.7-5.6-5.5-8.4-8.2
				c-0.8-0.8-1.8-1.5-2.8-2.2c-0.2,0.2-0.5,0.4-0.7,0.6c0.5,0.9,0.9,1.9,1.6,2.6c2.6,2.8,5.2,5.6,7.9,8.3c3.8,3.9,4.2,8.2,1,11.2
				c-3,2.9-7.3,2.4-10.9-1.2c-4.1-4.1-8.2-8.1-12.3-12.1c-0.3,0.2-0.6,0.4-0.9,0.7c0.7,1,1.2,2.2,2,3.1c2.7,2.9,5.4,5.7,8.1,8.6
				c3.2,3.5,3.4,7.6,0.5,10.5c-3,2.9-7,2.6-10.5-0.8c-3.2-3.2-6.4-6.5-9.6-9.7c-0.8-0.8-1.8-1.3-2.7-2c-0.2,0.2-0.5,0.5-0.7,0.7
				c0.7,0.9,1.2,2,2,2.8c2.2,2.4,4.5,4.6,6.7,6.9c3.3,3.6,3.5,8,0.5,10.7c-3.1,2.9-7.2,2.3-10.7-1.2c-1.7-1.7-2.7-3.4-2.7-6.1
				c0.1-6.3-3.1-10.9-8.8-13.8c-1.2-0.6-2.4-1.9-3-3.2c-1.6-3.6-4.1-6.3-7.6-8.2c-1.2-0.6-2.3-1.7-2.9-2.9c-1.7-3.5-4.1-6.1-7.6-7.8
				c-1-0.5-2.1-1.4-2.5-2.4c-2.8-6.6-8-9.8-14.8-9.8c-6.9,0-12.3,3-15.7,9.3c-0.4,0.7-0.8,1.4-1.3,2.3c-2.9-0.9-5.7-1.7-8.5-2.6
				c0-18.4,0-36.8,0-55.3c5.6,1.9,11.1,3.8,16.7,5.8c5.3,1.9,10.1,1,15.1-1.7c7.4-4.1,14.9-8,22.8-11.1c6.9-2.7,13.6-0.9,19.5,4.4
				c-4.4,2.5-8.6,4.7-12.6,7.1c-3.5,2.1-7.1,4.2-10.3,6.8c-5.8,4.7-7.1,13.1-3.3,19.7c3.7,6.4,11,9.4,18.1,6.8
				c5.9-2.2,11.5-5.1,17.3-7.6c5.6-2.5,9.1-1.9,13.4,2.4C109.2,97,118.7,106.5,128.2,116z"/>
			<path fill="#FFFFFF" d="M67.2,145.2c2.1,3.3,1.8,6.8-0.3,9.9c-2.8,4.2-7.1,6-12,5.7c-5.2-0.3-7.7-4.4-5.9-9.4
				c0.4-1,0.7-1.9,1.1-3.1c-3.6,0.4-7.2,2.4-10.4-0.5c-3.3-3-1.7-6.4-0.5-10c-3.5,0.2-6.9,2.4-10-0.8c-3-3.1-1.6-6.4-0.3-10.1
				c-1.6,0.3-2.7,0.5-3.8,0.8c-4.6,1-8.2-1.8-8.3-6.5c-0.1-4.5,3.8-10.4,7.9-12.1c7-2.8,12.5,1.8,12.1,10.2
				c7.9,0.1,10,2.2,10.5,10.5c8.7,1.1,11.2,4,9.9,11.8c0.4,0,0.8,0.1,1.1,0.1C62,140.9,65.1,142,67.2,145.2z"/>
		</g>
		<g>
		</g>
	</g>
</g>
</svg>
