<?xml version="1.0" encoding="utf-8"?>
<!-- Generator: Adobe Illustrator 18.1.0, SVG Export Plug-In . SVG Version: 6.00 Build 0)  -->
<svg version="1.1" id="Layer_1" xmlns="http://www.w3.org/2000/svg" xmlns:xlink="http://www.w3.org/1999/xlink" x="0px" y="0px"
	 viewBox="0 0 165 207" enable-background="new 0 0 165 207" xml:space="preserve">
<g>
	<g id="XMLID_1_">
		<g>
			<path fill="#FFFFFF" d="M130.3,135.5c0,4,0,8,0,12.2c-32.1,0-63.9,0-95.8,0c0-4.1,0-8,0-12.2C66.4,135.5,98.2,135.5,130.3,135.5z
				"/>
			<path fill="#327CC9" d="M155.5,86c0,22.8,0,45.2,0,67.8c-48.6,0-97.2,0-146,0c0-22.4,0-45,0-67.8c23.2,0,46.3,0,70,0
				c-3.9-6.1-8.7-10.6-14.5-13.5c-8.3-4.1-16.9-7.4-25.4-11c-1.1-0.5-2.4-0.8-3.4-1.5c-1.7-1.2-2.4-3.3-1.1-4.9
				c0.9-1.1,3.1-2.3,4.2-2c13.7,4.4,27.5,8.8,38.4,18.7c3.8,3.4,6.9,7.7,10,11.8c1.2,1.6,2.2,2.3,4.2,2.3c20-0.1,40,0,60,0
				C152.9,86,154.1,86,155.5,86z M146.2,108.1c0-4.2,0-8.2,0-12.3c-4.2,0-8.2,0-12.3,0c0,4.2,0,8.2,0,12.3
				C138.1,108.1,142.1,108.1,146.2,108.1z M136.6,127.7c0-4.2,0-8.1,0-12.3c-4.1,0-8.1,0-12.3,0c0,4.1,0,8,0,12.3
				C128.5,127.7,132.5,127.7,136.6,127.7z M130.3,147.7c0-4.2,0-8.2,0-12.2c-32.1,0-63.9,0-95.8,0c0,4.2,0,8.1,0,12.2
				C66.4,147.7,98.2,147.7,130.3,147.7z M127.1,108.1c0-4.3,0-8.2,0-12.5c-3.8,0-7.4,0-11,0.1c-0.5,0-1.4,0.7-1.5,1.1
				c-0.1,3.8-0.1,7.6-0.1,11.3C119,108.1,122.9,108.1,127.1,108.1z M117.3,127.7c0-4.2,0-8.1,0-12.3c-4.1,0-8,0-12.3,0
				c0,4.2,0,8.2,0,12.3C109.2,127.7,113.2,127.7,117.3,127.7z M107.8,108.1c0-4.2,0-8.2,0-12.3c-4.1,0-8.1,0-12.3,0
				c0,4.2,0,8.2,0,12.3C99.7,108.1,103.7,108.1,107.8,108.1z M98.1,127.7c0-4.3,0-8.3,0-12.3c-4.2,0-8.2,0-12.2,0
				c0,4.2,0,8.2,0,12.3C90,127.7,93.9,127.7,98.1,127.7z M88.5,108.1c0-4.2,0-8.2,0-12.3c-4.1,0-8,0-12.2,0c0,4.3,0,8.3,0,12.3
				C80.5,108.1,84.5,108.1,88.5,108.1z M79,127.7c0-4.2,0-8.1,0-12.2c-4.2,0-8.2,0-12.3,0c0,4.2,0,8.1,0,12.2
				C70.9,127.7,74.9,127.7,79,127.7z M69.3,108.1c0-4.1,0-8,0-12.3c-4.2,0-8.2,0-12.3,0c0,4.2,0,8.2,0,12.3
				C61.2,108.1,65.2,108.1,69.3,108.1z M59.7,127.6c0-4.2,0-8.2,0-12.3c-4.1,0-8,0-12.2,0c0,4.3,0,8.3,0,12.3
				C51.8,127.6,55.8,127.6,59.7,127.6z M50,108.1c0-4.4,0-8.4,0-12.2c-4.3,0-8.3,0-12.1,0c0,4.3,0,8.3,0,12.2
				C42.1,108.1,46,108.1,50,108.1z M40.4,127.7c0-4.3,0-8.3,0-12.3c-4.2,0-8.2,0-12.2,0c0,4.2,0,8.2,0,12.3
				C32.3,127.7,36.3,127.7,40.4,127.7z M30.9,108.1c0-4.2,0-8.2,0-12.3c-4.2,0-8.2,0-12.2,0c0,4.2,0,8.2,0,12.3
				C22.9,108.1,26.8,108.1,30.9,108.1z"/>
			<path fill="#FFFFFF" d="M146.2,95.8c0,4.1,0,8.1,0,12.3c-4.1,0-8.1,0-12.3,0c0-4.1,0-8.1,0-12.3C138,95.8,142,95.8,146.2,95.8z"
				/>
			<path fill="#FFFFFF" d="M136.6,115.4c0,4.1,0,8.1,0,12.3c-4.1,0-8.1,0-12.3,0c0-4.3,0-8.2,0-12.3
				C128.5,115.4,132.5,115.4,136.6,115.4z"/>
			<path fill="#FFFFFF" d="M127.1,95.6c0,4.3,0,8.2,0,12.5c-4.1,0-8,0-12.5,0c0-3.8,0-7.5,0.1-11.3c0-0.4,0.9-1.1,1.5-1.1
				C119.7,95.5,123.3,95.6,127.1,95.6z"/>
			<path fill="#FFFFFF" d="M117.3,115.4c0,4.1,0,8.1,0,12.3c-4.1,0-8.1,0-12.3,0c0-4.1,0-8.1,0-12.3
				C109.3,115.4,113.3,115.4,117.3,115.4z"/>
			<path fill="#FFFFFF" d="M107.8,95.8c0,4.2,0,8.2,0,12.3c-4.1,0-8.1,0-12.3,0c0-4.2,0-8.2,0-12.3C99.7,95.8,103.7,95.8,107.8,95.8
				z"/>
			<path fill="#FFFFFF" d="M98.1,115.5c0,4,0,8,0,12.3c-4.2,0-8.1,0-12.2,0c0-4.1,0-8.1,0-12.3C89.9,115.5,93.9,115.5,98.1,115.5z"
				/>
			<path fill="#FFFFFF" d="M88.5,95.7c0,4.1,0,8.1,0,12.3c-4,0-8,0-12.2,0c0-4.1,0-8.1,0-12.3C80.5,95.7,84.4,95.7,88.5,95.7z"/>
			<path fill="#FFFFFF" d="M79,115.4c0,4.1,0,8.1,0,12.2c-4.2,0-8.2,0-12.3,0c0-4.1,0-8.1,0-12.2C70.8,115.4,74.8,115.4,79,115.4z"
				/>
			<path fill="#FFFFFF" d="M69.3,95.8c0,4.3,0,8.2,0,12.3c-4.1,0-8.1,0-12.3,0c0-4.1,0-8.1,0-12.3C61.1,95.8,65.1,95.8,69.3,95.8z"
				/>
			<path fill="#FFFFFF" d="M59.7,115.4c0,4.1,0,8.1,0,12.3c-4,0-7.9,0-12.2,0c0-4,0-7.9,0-12.3C51.7,115.4,55.6,115.4,59.7,115.4z"
				/>
			<path fill="#FFFFFF" d="M50,95.9c0,3.9,0,7.9,0,12.2c-4,0-7.9,0-12.1,0c0-4,0-8,0-12.2C41.8,95.9,45.7,95.9,50,95.9z"/>
			<path fill="#FFFFFF" d="M40.4,115.4c0,4,0,8,0,12.3c-4.1,0-8.1,0-12.2,0c0-4.1,0-8.1,0-12.3C32.2,115.4,36.2,115.4,40.4,115.4z"
				/>
			<path fill="#FFFFFF" d="M30.9,95.8c0,4.1,0,8.1,0,12.3c-4.1,0-8.1,0-12.2,0c0-4.1,0-8.1,0-12.3C22.8,95.8,26.7,95.8,30.9,95.8z"
				/>
		</g>
		<g>
		</g>
	</g>
</g>
</svg>
