<?xml version="1.0" encoding="utf-8"?>
<!-- Generator: Adobe Illustrator 18.1.0, SVG Export Plug-In . SVG Version: 6.00 Build 0)  -->
<svg version="1.1" id="Layer_1" xmlns="http://www.w3.org/2000/svg" xmlns:xlink="http://www.w3.org/1999/xlink" x="0px" y="0px"
	 viewBox="0 0 165 165" enable-background="new 0 0 165 165" xml:space="preserve">
<g>
	<path fill="#357BBF" d="M113.6,35c8.6,7.5,17,14.8,25.9,22.6c-4.2,0-8,0-11.8,0c-1.2,7-3.3,13.6-6.7,19.6
		c-7.7,13.8-19.1,23.3-33.8,29c-11.1,4.3-22.5,5.6-34.3,4.1c-4.5-0.6-9-1.9-13.4-3c-0.6-0.2-1.1-0.9-1.6-1.4
		c0.7-0.3,1.5-0.9,2.2-0.8c8.5,1.2,16.8,0.4,24.8-2.5c15-5.5,25.7-15.7,32.3-30.1c2.1-4.5,3.3-9.4,5-14.5c-5.1,0-9.5,0-13.9,0
		c-0.1-0.2-0.2-0.3-0.3-0.5C96.5,49.9,105,42.5,113.6,35z"/>
	<path fill="#FFFFFF" d="M130.6,61.5c0,26.5,0,53.1,0,79.8c-4.4,0-8.7,0-13.2,0c0-0.9,0-1.6,0-2.4c0-16.2,0-32.3,0-48.5
		c0-1.1,0.3-2.3,0.9-3.2c5.6-7.4,9.6-15.6,11.7-24.7c0.1-0.3,0.2-0.6,0.3-1C130.4,61.6,130.5,61.5,130.6,61.5z"/>
	<path fill="#FFFFFF" d="M97.4,141.3c0-3.7,0-7.2,0-10.7c0-7.9,0-15.8,0-23.7c0-0.8,0.3-1.8,0.8-2.2c4.1-2.9,8.2-5.7,12.4-8.5
		c0,14.9,0,30,0,45.2C106.3,141.3,102,141.3,97.4,141.3z"/>
	<path fill="#FFFFFF" d="M90.8,141.3c-4.4,0-8.7,0-13.1,0c-0.1-0.6-0.1-1.2-0.1-1.7c0-8.4,0-16.8,0-25.2c0-1.5,0.5-2.1,1.9-2.4
		c3.8-1,7.5-2.3,11.4-3.4C90.8,119.4,90.8,130.2,90.8,141.3z"/>
	<path fill="#FFFFFF" d="M51.1,113.5c0,9.3,0,18.5,0,27.8c-4.4,0-8.6,0-13.1,0c0-10.3,0-20.6,0-31C42.4,111.4,46.7,112.4,51.1,113.5
		z"/>
	<path fill="#FFFFFF" d="M57.8,141.2c0-9,0-17.9,0-27.2c4.3,0,8.7,0,13.1,0c0,8.9,0,18,0,27.2C66.6,141.2,62.3,141.2,57.8,141.2z"/>
</g>
</svg>
