<?xml version="1.0" encoding="utf-8"?>
<!-- Generator: Adobe Illustrator 18.1.0, SVG Export Plug-In . SVG Version: 6.00 Build 0)  -->
<svg version="1.1" id="Layer_1" xmlns="http://www.w3.org/2000/svg" xmlns:xlink="http://www.w3.org/1999/xlink" x="0px" y="0px"
	 viewBox="0 0 165 165" enable-background="new 0 0 165 165" xml:space="preserve">
<g>
	<path fill="#357BBF" d="M139.9,142.1c-38,0-75.9,0-113.9,0c0-37.7,0-75.3,0-113c38,0,75.9,0,113.9,0
		C139.9,66.7,139.9,104.4,139.9,142.1z M132.2,134.4c0-32.7,0-65.2,0-97.6c-33,0-65.7,0-98.5,0c0,32.6,0,65.1,0,97.6
		C66.5,134.4,99.3,134.4,132.2,134.4z"/>
	<path fill="#FFFFFF" d="M52.7,92.6c0-2.8,0-5.6,0-8.4c0-0.6,0.3-1.6,0.6-1.6c1.8-0.4,1.8-1.6,1.7-3c0-1.2-0.4-1.7-1.7-2.1
		c-6.9-2-11.2-6.6-12.5-13.6c-1.2-6.6,1-12.3,6.4-16.5c5.2-4.1,11.1-4.9,17.1-2.4c5.9,2.4,9.5,7.1,10.5,13.5
		c1.4,8.8-4.6,17-12.6,19.1c-0.6,0.2-1.5,1.1-1.5,1.6c0,1.1-0.7,2.5,1,3.3c0.6,0.3,1.2,1.2,1.3,1.8c0.1,5.6,0.1,11.3,0,16.9
		c0,0.7-0.5,1.8-1,2c-1.9,0.6-3.9,1.4-5.9,1.3c-2.8-0.2-3.7-1.7-3.7-4.5C52.7,97.5,52.7,95.1,52.7,92.6z M58,74.1
		c7.2,0,13.1-5.9,13.2-13.1c0.1-7.3-5.9-13.3-13.2-13.3c-7.4,0-13.3,5.9-13.3,13.2C44.7,68.2,50.7,74.1,58,74.1z"/>
	<path fill="#357BBF" d="M43,118.3c0-2.4,0-4.8,0-7.2c26.3,0,52.5,0,78.9,0c0,2.4,0,4.7,0,7.2C95.7,118.3,69.5,118.3,43,118.3z"/>
	<path fill="#357BBF" d="M121.9,85c0,2.5,0,4.8,0,7.2c-16.7,0-33.2,0-50,0c0-2.3,0-4.7,0-7.2C88.6,85,105.2,85,121.9,85z"/>
	<path fill="#357BBF" d="M83.1,66.2c0-2.4,0-4.7,0-7.2c12.9,0,25.8,0,38.9,0c0,2.4,0,4.7,0,7.2C109,66.2,96.1,66.2,83.1,66.2z"/>
</g>
</svg>
