<?xml version="1.0" encoding="utf-8"?>
<!-- Generator: Adobe Illustrator 18.1.0, SVG Export Plug-In . SVG Version: 6.00 Build 0)  -->
<svg version="1.1" id="Layer_1" xmlns="http://www.w3.org/2000/svg" xmlns:xlink="http://www.w3.org/1999/xlink" x="0px" y="0px"
	 viewBox="0 0 165 165" enable-background="new 0 0 165 165" xml:space="preserve">
<g>
	<path fill="#FFFFFF" d="M86.2,30.2c3.4,1.2,6.5,2.6,8.9,5.4c4,4.8,4.6,11.7,1.3,17.3c-3.1,5.4-9.3,8.1-15.8,7.1
		c-5.7-0.9-10.8-6.1-11.9-11.9C67.3,40.6,71.7,33.3,79,31c0.6-0.2,1.2-0.5,1.8-0.8C82.6,30.2,84.4,30.2,86.2,30.2z"/>
	<path fill="#575C63" d="M25.8,139.9c1.4-4.8,2.9-9.6,4.2-14.4c0.4-1.5,1-2.3,2.7-2.5c1.9-0.2,3.7-0.7,5.5-1.2
		c2.7-0.6,5.6-0.8,7.2-3.6c0.5,0.5,0.8,0.8,1.1,1.1c2.2,1.7,2.9,3.8,2.4,6.7c-0.8,4.8-1.3,9.7-1.9,14.8c-7.1,0-14.1,0-21.1,0
		C25.8,140.5,25.8,140.2,25.8,139.9z"/>
	<path fill="#575C63" d="M36.5,103.5c0-7.9,6.2-14.2,14.1-14.2c7.8,0,14.2,6.3,14.3,14.1c0.1,7.7-6.5,14.2-14.2,14.3
		C42.9,117.7,36.5,111.3,36.5,103.5z"/>
	<path fill="#575C63" d="M130.6,103.5c-0.1,7.8-6.5,14.2-14.3,14.2c-7.7-0.1-14.3-6.7-14.1-14.3c0.1-7.9,6.5-14.1,14.3-14
		C124.4,89.3,130.6,95.7,130.6,103.5z"/>
	<path fill="#357BBF" d="M79.6,84.7c-7.6,0-14.9,0-22.4,0c1.2-4.4,2.7-8.6,3.4-12.9c0.7-4.2,2.6-6.5,7-6.6c0.9,0,1.9-0.4,2.8-0.7
		c4.4-1,4.4-1,7.4-3.5c3,2.2,4.4,4.7,3.5,8.8C80.4,74.7,80.2,79.7,79.6,84.7z"/>
	<path fill="#357BBF" d="M109.8,84.7c-7.4,0-14.7,0-22.3,0c-0.4-3.2-0.8-6.4-1.2-9.7C86,73,86,70.8,85.5,68.8
		c-1.1-3.8,1.4-5.6,3.7-7.8c3.3,4.3,8.5,3.6,12.9,4.8c2.1,0.6,3.1,1.4,3.6,3.5c1.1,4.6,2.5,9.1,3.7,13.6
		C109.5,83.4,109.6,84,109.8,84.7z"/>
	<path fill="#575C63" d="M141.3,140.7c-7.1,0-14,0-21.1,0c-0.7-5.9-1.5-11.8-2.1-17.6c-0.1-0.9,1-1.9,1.7-2.7
		c0.5-0.7,1.2-1.3,1.9-2.1c3,4,7.7,3.4,11.7,4.4c2.3,0.6,3.5,1.4,4,3.9C138.5,131.2,139.9,135.9,141.3,140.7z"/>
	<path fill="#575C63" d="M75.5,140.7c-7.1,0-14,0-21.1,0c-0.5-4-1-8.1-1.5-12.1c-0.1-0.4,0-0.9-0.1-1.3c-1.2-3.7-0.1-6.6,3.2-8.7
		c3.4,3.8,8.5,3.2,12.9,4.5c1.4,0.4,2.1,1,2.5,2.4C72.6,130.4,74.1,135.5,75.5,140.7z"/>
	<path fill="#575C63" d="M112.7,140.7c-7.1,0-14,0-21.2,0c1.3-4.8,2.8-9.4,3.8-14.1c0.6-2.5,1.8-3.6,4.3-3.9
		c2.2-0.3,4.4-0.7,6.6-1.4c1.8-0.6,3.4-1.6,5.2-2.5c2.8,1.8,3.7,4.4,3,8.2C113.5,131.3,113.3,135.9,112.7,140.7z"/>
</g>
</svg>
