<?xml version="1.0" encoding="utf-8"?>
<!-- Generator: Adobe Illustrator 18.1.0, SVG Export Plug-In . SVG Version: 6.00 Build 0)  -->
<svg version="1.1" id="Layer_1" xmlns="http://www.w3.org/2000/svg" xmlns:xlink="http://www.w3.org/1999/xlink" x="0px" y="0px"
	 viewBox="0 0 165 165" enable-background="new 0 0 165 165" xml:space="preserve">
<g>
	<path fill="#357BBF" d="M139.7,60.9c0,4,0,8,0,12c-6.9,0-13.7,0-20.6,0c-3.2,0-6.9-0.9-9.6,0.3c-2.8,1.2-4.7,4.5-7,6.9
		c-0.6,0.6-1.2,1.1-1.6,1.8c-0.5,0.8-1,1.7-1,2.5c-0.1,4.6-0.1,9.2,0,13.7c0,1,0.3,2,0.8,2.9c3,5.6,6.2,11.1,9.3,16.6
		c0.3,0.5,0.6,0.9,1,1.4c0.5-0.4,0.9-0.6,1.2-0.9c6.8-5,15.9-4.6,22.2,1c2.8,2.5,4.2,5.8,5.4,9.2c0,4,0,8,0,12c-11.5,0-23,0-34.6,0
		c0.1-1.4,0.2-2.8,0.2-4.2c0-4.1-0.2-8.1,1.7-11.9c0.2-0.5-0.1-1.4-0.4-2c-3.3-6.1-6.8-12.1-10.1-18.2c-0.6-1.1-1.3-1.5-2.6-1.5
		c-7.2,0.1-14.3,0.1-21.5,0c-1.4,0-2.1,0.4-2.7,1.6c-2.9,5.3-5.8,10.6-8.9,15.8c-1.4,2.4-2.5,4.6-0.8,7.3c0.4,0.6,0.4,1.4,0.4,2.1
		c0.2,3.6,0.3,7.2,0.4,10.8c-11.5,0-22.9,0-34.6,0c0-4,0-8,0-12c0.2-0.4,0.4-0.8,0.5-1.2c2.8-8.7,10.5-13.7,19.5-12.1
		c3.2,0.6,6.2,2.3,9.6,3.6c1.4-2.5,2.9-5.7,4.9-8.5c3.8-5.5,5.4-11.4,4.7-18.1c-0.4-3.4,0.8-7.3-0.4-10.3c-1.2-3-4.5-5.2-6.8-7.7
		c-0.1-0.1-0.1-0.1-0.2-0.2c-0.8-0.3-1.5-1-2.3-1c-9.8-0.1-19.6,0-29.4,0c0-4,0-8,0-12c0.2-0.5,0.4-1.1,0.6-1.6
		c2.3-7,7.2-11,14.4-12c7.2-1,13.8,2.5,17.3,8.7c2,3.5,2,7.3,2.1,11.2c0,1.1,0.3,2.4,1,3.2c2.5,3,5.2,5.8,8,8.6
		c0.7,0.7,1.9,1.2,2.8,1.2c7.1,0.1,14.2,0.1,21.3,0c1,0,2.1-0.5,2.8-1.2c2.6-2.5,5-5.2,7.4-7.9c0.7-0.8,1.1-2,1.2-3.1
		c0.3-2.6,0-5.4,0.6-7.9c3.1-12.1,17.8-16.8,27.6-8.9C136.8,53.5,138.5,57,139.7,60.9z"/>
	<path fill="#FFFFFF" d="M46.2,20.5c0.8,0.4,1.5,0.7,2.3,1.1C54,24,57.2,30.3,55.8,36c-1.5,6.1-6.8,10-13.2,9.8
		c-5.8-0.2-10.7-4.8-11.7-10.8c-0.9-5.7,2.6-11.6,8.3-13.6c0.6-0.2,1.2-0.5,1.8-0.8C42.6,20.5,44.4,20.5,46.2,20.5z"/>
	<path fill="#FFFFFF" d="M125.1,20.5c2.8,1.2,5.5,2.3,7.4,4.8c3.4,4.4,3.6,10.3,0.5,14.9c-3,4.4-8.6,6.5-13.6,5.2
		c-5.7-1.6-9.3-6-9.5-11.6c-0.2-5.6,2.9-10.5,8.1-12.4c0.6-0.2,1.1-0.6,1.7-0.8C121.5,20.5,123.3,20.5,125.1,20.5z"/>
	<path fill="#FFFFFF" d="M122.2,113.3c-7.1-0.2-12.4-5.9-12.3-12.9c0.2-7,6.1-12.6,12.9-12.3c7,0.3,12.5,6.1,12.3,13
		C135,108,129.2,113.5,122.2,113.3z"/>
	<path fill="#FFFFFF" d="M43.4,113.3c-7,0-12.7-5.6-12.7-12.6c0-6.9,5.8-12.7,12.6-12.7c6.9,0,12.7,5.7,12.7,12.7
		C56,107.6,50.5,113.2,43.4,113.3z"/>
</g>
</svg>
