<?xml version="1.0" encoding="utf-8"?>
<!-- Generator: Adobe Illustrator 18.1.0, SVG Export Plug-In . SVG Version: 6.00 Build 0)  -->
<svg version="1.1" id="Layer_1" xmlns="http://www.w3.org/2000/svg" xmlns:xlink="http://www.w3.org/1999/xlink" x="0px" y="0px"
	 viewBox="0 0 165 165" enable-background="new 0 0 165 165" xml:space="preserve">
<g>
	<path fill="#357BBF" d="M134.3,35.1c1,0,1.9,0,2.9,0c2.3,1.5,3,3.7,3,6.4c-0.1,28.6,0,57.2,0,85.8c0,0.7,0,1.4,0,2.1
		c-0.2,2.1-1.3,3.5-3.3,4.1c-2,0.5-3.3-0.4-4.5-1.9c-0.4-0.5-0.8-1-1.3-1.3c-12.4-5.8-24.9-11.7-37.4-17.3c-2.9-1.3-6.1-2.2-9.5-3.3
		c0,1,0,1.8,0,2.5c0,8,0.1,16,0.1,24c0,3.6-1.8,5.4-5.4,5.4c-1.7,0-3.5,0-5.2,0c-4.4,0-6-1.6-6.1-6c0-9.5-0.1-18.9-0.1-28.4
		c0-0.7-0.1-1.5-0.1-2.4c-5.3-1-10.5-2-15.7-2.8c-1.6-0.2-2.1-0.7-2.1-2.3c0.1-10.2,0-20.5,0-30.7c0-0.6,0.1-1.2,0.1-1.8
		c0.4-0.1,0.6-0.2,0.9-0.2c12.3-1.8,24.4-4.7,36.2-8.7c13.7-4.6,26.6-10.9,39.4-17.4C129.1,39.3,132.2,38,134.3,35.1z"/>
	<path fill="#FFFFFF" d="M33.2,67.3c4.1,0,8.2,0,12.4,0c0,11.5,0,22.5,0,33.8c-4.1,0-8.3,0-12.4,0C33.2,89.8,33.2,78.6,33.2,67.3z"
		/>
</g>
</svg>
