<?xml version="1.0" encoding="utf-8"?>
<!-- Generator: Adobe Illustrator 18.1.0, SVG Export Plug-In . SVG Version: 6.00 Build 0)  -->
<svg version="1.1" id="Layer_1" xmlns="http://www.w3.org/2000/svg" xmlns:xlink="http://www.w3.org/1999/xlink" x="0px" y="0px"
	 viewBox="0 0 165 207" enable-background="new 0 0 165 207" xml:space="preserve">
<g>
	<path fill="#327CC9" d="M7.7,154.7c16.9,0.7,31.5-2.7,45.1-12.9c-14.2-2-23.5-8.6-28.8-21.3c4.3-0.3,8-0.6,13.4-1
		c-15.6-5.7-23.6-15.3-24.8-30.7c4.2,1,7.7,1.9,11.3,2.8C13.1,79.2,9.5,66.3,17.2,50.5c17.7,19.7,39,30.7,65.6,32.4
		c-1.8-13,1.4-23.5,11.5-31.4c11-8.6,26.1-9.7,37.2-1.4c5.3,4,9.6,3.8,14.8,1.7c3.3-1.3,6.6-2.7,9.9-4c0.4,0.4,0.8,0.8,1.2,1.1
		c-3.6,4.8-7.2,9.5-11.1,14.7c4.7-1.1,9.3-2.3,14.7-3.6c-1.7,2.2-2.5,4.2-4.1,5.2c-10.2,6.5-10.4,16.7-12.1,27.1
		c-11,67.2-80.4,92.7-132.3,65.4C11.1,157.1,9.9,156.2,7.7,154.7z"/>
</g>
</svg>
